<svg width="19" height="19" viewBox="0 0 19 19" fill="none" xmlns="http://www.w3.org/2000/svg">
<path d="M18.07 16.58L14.58 13.09C15.53 11.82 16.1 10.25 16.1 8.54999C16.1 4.37999 12.71 0.98999 8.53998 0.98999C4.36998 0.98999 0.97998 4.37999 0.97998 8.54999C0.97998 12.72 4.36998 16.11 8.53998 16.11C10.18 16.11 11.7 15.58 12.94 14.69L16.45 18.2C16.67 18.42 16.97 18.54 17.26 18.54C17.55 18.54 17.85 18.43 18.07 18.2C18.52 17.76 18.52 17.03 18.07 16.58ZM8.53998 13.81C5.63998 13.81 3.28003 11.45 3.28003 8.54999C3.28003 5.64999 5.63998 3.28998 8.53998 3.28998C11.44 3.28998 13.8 5.64999 13.8 8.54999C13.8 11.45 11.44 13.81 8.53998 13.81Z" fill="#9B786F"/>
</svg>
